<svg xmlns="http://www.w3.org/2000/svg" viewBox="0 0 381.65 150.89" style="">
  <g id="Calque_2" data-name="Calque 2">
    <g id="Calque_1-2" data-name="Calque 1">
      <path d="M120.81,85.35c-.18-.81,7.59-1,12.63-.89s81.53.56,97.4.78,75.72.84,84.92,1.17,59.74,2.18,63.53,4.27,1,5.86-1.51,6.26-24.29,3.39-57.12,4.12-66.93.3-81.72-.18-73.7-2.28-83.23-2.61-42.55-2.51-53.93-2.91-66.14-2.5-76.56-3S2,92.49,1.07,91.31s-.81-3.2,1.18-3.09,39,2.35,40.38,1.76S47.42,71,40,68.27s-21.79-7.62-25.11.92-3.83,16.56.3,18,23,4.49,26.24,1.47S37.29,72.39,44.4,67.38s16.56-4,20.83-.73,6.89,23.63,3.68,23.92-12.37.92-13.54-.33-1.7-16.71-.59-17.56,14.46-.44,14.76-1.84-.7-35.92-1.29-37.91-12.59-20.21-13-20.43S30.81,11.73,29.67,11s-1.4-1.5,3.54-2.83S63.35.54,64.86.5,123,4.59,125.64,4.88s8.9,1.18,9,2.25S129,7.79,124,7.57,99.24,6,92.36,5.54,73.62,4.22,71.05,3.48s-4.64-1.29-6.55-1S38.73,8.34,36,9.19s14-.63,16.13-.52S54.81,8.6,55.92,10c.2.26.79,1.07,1.62,2.25.13.18,17.88,0,18.4,1,.08.14-17.81-.12-17.72,0C62.09,18.77,69.36,29.52,70,31.75c.81,2.91.11,12.15.85,12.55s7.14.3,7.4-.66-6-.59-7.07-.11-.26,4.23-.15,6.92.44,14.8.59,17.34.07,16.64.52,16,7.47-3.2,7.87-2.58-.44,8.91.67,9.46,2.09.78,1.87-3.23-1.84-37.94-2-41.53c-.1-2.51-1.15-21-1.88-32.08,0-.17,12.3.25,11.8-.88-.08-.2-11.87-.07-11.88-.27-.29-4.25-.52-7.18-.61-7.29-.33-.41-1.66-.59-1.66,1.32s2.58,48.44,2.76,51.2-1.84,8.58-2.94,10.9S71,90,71.49,90.5s7,.33,8,.37,29.6.7,42.59,1.29,77,2.79,93.2,3.09,57.35,1.07,69.5.92,42.85-1.07,58.2-1.4,29.74-2.58,30.84-3.28S335.08,86,321.91,87.78,260.32,94.59,257,94.92s10-2.51,12.63-2.87,35.23-3.68,41-3.54c0,0-34.42-.81-40.23-.81s-36.67-.77-50.1-1-47.19-.26-58.75-.37-40.93.81-41.12-2.17S118.9,43,118.5,37.31,117.39,8.6,117.06,8.19s-23.41,4.46-23.89,4.2.74-1.44,4.34-2,18.11-3.57,18.15-1.14,1.73,34.9,1.25,35.12-8.39,1.25-9.42.37,1.84-1.55,4.53-1.48,4.89-.25,5,2.06,2.18,40.13,1.81,40.31-7,.77-7.18-.11,5.88-1.21,6.55-1,1.8,6.37,1,6.63-5.85,1.84-6.48-.48S108.19,67,107.42,65s-23.27-1.83-24.67-1.76-1.29-1.62,2.8-1.95,14.91-.74,15.87-.08,2.68,2,4.27,2,.4-.33.33-1.69-.11-23.71-.63-27.09S90.45,12.17,90.12,11.06s1.36-1,4.3,2.95,12.7,16.34,12.92,19.29,1.14,38.91.44,39.16-23.3,1-24.77,1.18,3.5-.15,4.12,1.55S91.37,90.46,92,94.07s1,9.87.67,10.42-1.29.11-1.18,2,.11,1.36-.48,1.81-3.09,1.21-3.06,4.16,2.29,24.44,3.1,25.76,10.63.55,11.37.3-.63-12.85-1.29-16.71-1.1-10.46-2.72-12.37-3.2-1-3.65-2.28-1.32-4-2.32-1.55-.55,3.2,0,2.17-2.24,1.14-2.9,2.72,6.66-1.32,7.54-.92-6.44,1.92-7,4.72.74,12.88.7,13.32S76,125.58,72.63,125.1s-4.93-1.29-10.53-2-3.05.89-8.83.19-5.82-2.43-10.42-3.13-2.21,1.25-6.77.15-2.73-2.43-6.41-2.95-4.38,0-7.25-.29-4.86.33-5.89.11-.66-2.91-.84-4.13a30.67,30.67,0,0,0-3.32-8.46c-1.54-2.25-4-9.9-4.19-11.74s2,1.06,3.16,1.36A138.67,138.67,0,0,0,27,95.84c7,.33-3.16-1.62-4.08-2.43S31,94.59,33.17,95.62s5.34-.18,2.25-1.55,12.84,5.41,9,2.58,2-2.25,6.45-.41,12.66,2.91,8,.26,1.66-3.61,5-1.21,14.36,5.11,9.46,1.43S86,101,82.35,97.9s13.51,4.34,9.13.62,16.41,4.79,11.3.56,31.84,4,25.54,1,16.86,4,12.78.77,38.21,9.21,29.52,3.87.18-6.81,13.25.15,122,27,131.59,25.54,39.47-26.5,41.82-29.45S313.4,130.55,305.89,132,242.43,142.92,239.2,144s32.39,6.48,41.37,6.33,19,.3,22.67,0,13.1-15.54,12.08-17.67-3.54,7.51-7.07,8.1-70.82,3.09-82.9,1.91-39.46.59-50.94-1.76-28-6.78-37.4-7.07-19.88,1.47-25-1.47-3.81-2.24-6.77-1.77" style="fill: none;stroke: #fff;stroke-miterlimit: 10" class="BLAGkkvW_0"></path>
    </g>
  </g>
<style data-made-with="vivus-instant">.BLAGkkvW_0{stroke-dasharray:3836 3838;stroke-dashoffset:3837;animation:BLAGkkvW_draw 3333ms ease-in-out 0ms forwards;}@keyframes BLAGkkvW_draw{100%{stroke-dashoffset:0;}}@keyframes BLAGkkvW_fade{0%{stroke-opacity:1;}95.65217391304348%{stroke-opacity:1;}100%{stroke-opacity:0;}}</style></svg>
