<!--?xml version="1.0" encoding="utf-8"?-->
<!-- Generator: Adobe Illustrator 24.2.3, SVG Export Plug-In . SVG Version: 6.00 Build 0)  -->
<svg version="1.1" id="Calque_1" xmlns="http://www.w3.org/2000/svg" xmlns:xlink="http://www.w3.org/1999/xlink" x="0px" y="0px" viewBox="0 0 381.6 150.9" style="" xml:space="preserve">
<style type="text/css">
	.st0{fill:none;stroke:#FFFFFF;stroke-miterlimit:10;}
</style>
<path class="st0 nJHJtjmt_0" d="M120.8,85.3c-0.2-0.8,7.6-1,12.6-0.9s81.5,0.6,97.4,0.8s75.7,0.8,84.9,1.2s59.7,2.2,63.5,4.3s1,5.9-1.5,6.3
	s-24.3,3.4-57.1,4.1s-66.9,0.3-81.7-0.2s-73.7-2.3-83.2-2.6s-42.6-2.5-53.9-2.9s-66.1-2.5-76.6-3S2,92.5,1.1,91.3s-0.8-3.2,1.2-3.1
	s39,2.3,40.4,1.8s4.8-19-2.6-21.7s-21.8-7.6-25.1,0.9s-3.8,16.6,0.3,18s23,4.5,26.2,1.5s-4.1-16.3,3-21.3s16.6-4,20.8-0.7
	s6.9,23.6,3.7,23.9s-12.4,0.9-13.5-0.3s-1.7-16.7-0.6-17.6s14.5-0.4,14.8-1.8s-0.7-35.9-1.3-37.9s-12.6-20.2-13-20.4
	S30.8,11.7,29.7,11s-1.4-1.5,3.5-2.8s30.1-7.6,31.7-7.7s58.1,4.1,60.8,4.4s8.9,1.2,9,2.3S129,7.8,124,7.6S99.2,6,92.4,5.5
	S73.6,4.2,71.1,3.5s-4.6-1.3-6.6-1S38.7,8.3,36,9.2s14-0.6,16.1-0.5s2.7-0.1,3.8,1.3c0.2,0.3,0.8,1.1,1.6,2.3c0.1,0.2,17.9,0,18.4,1
	c0.1,0.1-17.8-0.1-17.7,0c3.9,5.5,11.1,16.3,11.8,18.5c0.8,2.9,0.1,12.2,0.8,12.5s7.1,0.3,7.4-0.7s-6-0.6-7.1-0.1s-0.3,4.2-0.2,6.9
	s0.4,14.8,0.6,17.3s0.1,16.6,0.5,16s7.5-3.2,7.9-2.6s-0.4,8.9,0.7,9.5s2.1,0.8,1.9-3.2s-1.8-37.9-2-41.5c-0.1-2.5-1.2-21-1.9-32.1
	c0-0.2,12.3,0.3,11.8-0.9c-0.1-0.2-11.9-0.1-11.9-0.3c-0.3-4.3-0.5-7.2-0.6-7.3c-0.3-0.4-1.7-0.6-1.7,1.3s2.6,48.4,2.8,51.2
	s-1.8,8.6-2.9,10.9S71,90,71.5,90.5s7,0.3,8,0.4s29.6,0.7,42.6,1.3s77,2.8,93.2,3.1s57.4,1.1,69.5,0.9s42.9-1.1,58.2-1.4
	s29.7-2.6,30.8-3.3s-38.7-5.5-51.9-3.7s-61.6,6.8-64.9,7.1s10-2.5,12.6-2.9s35.2-3.7,41-3.5c0,0-34.4-0.8-40.2-0.8s-36.7-0.8-50.1-1
	s-47.2-0.3-58.8-0.4s-40.9,0.8-41.1-2.2s-1.5-41.2-1.9-46.8s-1.1-28.7-1.4-29.1s-23.4,4.5-23.9,4.2s0.7-1.4,4.3-2s18.1-3.6,18.2-1.1
	s1.7,34.9,1.3,35.1s-8.4,1.3-9.4,0.4s1.8-1.5,4.5-1.5s4.9-0.3,5,2.1s2.2,40.1,1.8,40.3s-7,0.8-7.2-0.1s5.9-1.2,6.6-1s1.8,6.4,1,6.6
	s-5.8,1.8-6.5-0.5S108.2,67,107.4,65s-23.3-1.8-24.7-1.8s-1.3-1.6,2.8-2s14.9-0.7,15.9-0.1s2.7,2,4.3,2s0.4-0.3,0.3-1.7
	s-0.1-23.7-0.6-27.1S90.4,12.2,90.1,11.1s1.4-1,4.3,2.9s12.7,16.3,12.9,19.3s1.1,38.9,0.4,39.2s-23.3,1-24.8,1.2s3.5-0.2,4.1,1.6
	s4.2,15.3,4.9,18.9s1,9.9,0.7,10.4s-1.3,0.1-1.2,2s0.1,1.4-0.5,1.8s-3.1,1.2-3.1,4.2s2.3,24.4,3.1,25.8s10.6,0.6,11.4,0.3
	s-0.6-12.8-1.3-16.7s-1.1-10.5-2.7-12.4s-3.2-1-3.7-2.3s-1.3-4-2.3-1.6s-0.6,3.2,0,2.2s-2.2,1.1-2.9,2.7s6.7-1.3,7.5-0.9
	s-6.4,1.9-7,4.7s0.7,12.9,0.7,13.3c0,0.4-14.8-2-18.1-2.5s-4.9-1.3-10.5-2s-3,0.9-8.8,0.2s-5.8-2.4-10.4-3.1s-2.2,1.3-6.8,0.2
	s-2.7-2.4-6.4-2.9s-4.4,0-7.3-0.3s-4.9,0.3-5.9,0.1s-0.7-2.9-0.8-4.1c-0.7-3-1.8-5.8-3.3-8.5c-1.5-2.3-4-9.9-4.2-11.7s2,1.1,3.2,1.4
	c5.2,0.8,10.4,1.4,15.7,1.6c7,0.3-3.2-1.6-4.1-2.4s8.1,1.2,10.2,2.2s5.3-0.2,2.3-1.6s12.8,5.4,9,2.6s2-2.3,6.5-0.4s12.7,2.9,8,0.3
	s1.7-3.6,5-1.2s14.4,5.1,9.5,1.4s12.7,4.3,9,1.2s13.5,4.3,9.1,0.6s16.4,4.8,11.3,0.6s31.8,4,25.5,1s16.9,4,12.8,0.8
	s38.2,9.2,29.5,3.9s0.2-6.8,13.3,0.2s122,27,131.6,25.5s39.5-26.5,41.8-29.4s-43.9,29.6-51.4,31s-63.5,10.9-66.7,12
	s32.4,6.5,41.4,6.3s19,0.3,22.7,0s13.1-15.5,12.1-17.7s-3.5,7.5-7.1,8.1s-70.8,3.1-82.9,1.9s-39.5,0.6-50.9-1.8s-28-6.8-37.4-7.1
	s-19.9,1.5-25-1.5s-3.8-2.2-6.8-1.8"></path>
<style data-made-with="vivus-instant">.nJHJtjmt_0{stroke-dasharray:3836 3838;stroke-dashoffset:3837;animation:nJHJtjmt_draw 3333ms ease-in-out 0ms forwards;}@keyframes nJHJtjmt_draw{100%{stroke-dashoffset:0;}}@keyframes nJHJtjmt_fade{0%{stroke-opacity:1;}95.65217391304348%{stroke-opacity:1;}100%{stroke-opacity:0;}}</style></svg>
