<svg id="logo_load" xmlns="http://www.w3.org/2000/svg" xmlns:xlink="http://www.w3.org/1999/xlink" viewBox="0 0 446.97 508.75">
  <defs>
    <radialGradient id="Dégradé_sans_nom_20" data-name="Dégradé sans nom 20" cx="113.6" cy="292.64" r="84.01" gradientUnits="userSpaceOnUse">
      <stop offset="0.58" stop-color="#1d1d1b"/>
      <stop offset="1" stop-color="#fff"/>
    </radialGradient>
    <filter id="luminosity-noclip" x="8613" y="-8490" width="-32766" height="32766" filterUnits="userSpaceOnUse" color-interpolation-filters="sRGB">
      <feFlood flood-color="#fff" result="bg"/>
      <feBlend in="SourceGraphic" in2="bg"/>
    </filter>
    <mask id="mask" x="8415.88" y="-8533.44" width="-32766" height="32766" maskUnits="userSpaceOnUse">
      <g style="filter: url(#luminosity-noclip)"/>
    </mask>
    <filter id="luminosity-invert" filterUnits="userSpaceOnUse" color-interpolation-filters="sRGB">
      <feColorMatrix values="-1 0 0 0 1 0 -1 0 0 1 0 0 -1 0 1 0 0 0 1 0"/>
    </filter>
    <mask id="mask-2" x="-167.54" y="165.18" width="614.51" height="168.02" maskUnits="userSpaceOnUse">
      <g style="filter: url(#luminosity-invert)">
        <g transform="translate(-197.12 -43.44)">
          <animateTransform
              attributeName='transform'
              type="translate"
              from="-197.12 -30"
              to="420 -30"
              begin="0s"
              dur="2s"
              repeatCount="indefinite"
          />
          <circle id="masque" cx="113.6" cy="292.64" r="84.01" style="fill: url(#Dégradé_sans_nom_20)"/>
        </g>
      </g>
    </mask>
  </defs>
  <path id="trondro" d="M391.09,366.11q1.8-3.63,3.58-7.28h.62l-3.6,7.57c-1.83,3.72-3.63,7.45-5.48,11.16s-3.71,7.4-5.64,11.07c1.68-3.79,3.43-7.54,5.18-11.3S389.31,369.85,391.09,366.11ZM432.14,419c.29-2,.56-4,.84-6q1.69-11.91,3.18-23.85.87-7.12,1.67-14.27.87-7.83,1.69-15.68c0-.13,0-.27,0-.4h-.45l0,.35q-.74,7.5-1.55,15t-1.69,15q-1.35,11.92-2.92,23.84C432.66,415,432.41,417,432.14,419Zm14.3-7.32c1.71.86,3.49,1.18,2.28-5.22a81.1,81.1,0,0,0-2.27-9c-.4-1.25-.67-2-.67-2s0,.13.1.36c.52,2.25,2.82,14.09-7.14,14.78C438.74,410.64,444.15,410.14,446.44,411.72Zm3.42-7.13c.28,1,.54,2,.75,3.07a18.46,18.46,0,0,1,.43,3.11,5.38,5.38,0,0,1-.15,1.51,1.69,1.69,0,0,1-.79,1.16,1.45,1.45,0,0,1-.37.11,2.73,2.73,0,0,1-1.1-.05,7.42,7.42,0,0,1-1.49-.55,5.88,5.88,0,0,0,1.44.72,3.1,3.1,0,0,0,1.06.16,1.7,1.7,0,0,0,.59-.1,1.45,1.45,0,0,0,.68-.56,2.58,2.58,0,0,0,.38-.76,5.44,5.44,0,0,0,.25-1.64,24.32,24.32,0,0,0-1.05-6.36c-.58-2.05-1.24-4.08-2-6.07-.37-1-.78-2-1.17-3s-.84-2-1.28-2.93c.63,2,1.32,4.05,2,6.07S449.29,402.55,449.86,404.59ZM376,200l2.66-10.45L376.08,183l2.55-9.27L376,167l3-5.48c0-.52.06-1.05.1-1.57l-1.2-4.93,2.07-4.93c0-.46.1-.91.16-1.36l-.69-5.52,2.19-5c1.1-6.53,2.42-12.4,3.85-17.63,4-15.76,9.06-26.94,13.31-32,12-17.29,11.67-28,11.41-35.8l0-.92a2.34,2.34,0,0,0-.64-1.22l0-.06a4.29,4.29,0,0,1,.7-6,4.84,4.84,0,0,1,1.07-.66,4.16,4.16,0,0,1,2.52-.34,4.23,4.23,0,0,1,2.88,2.08,4.18,4.18,0,0,1,.51,2.65,3.75,3.75,0,0,0,.58,2.56,70.3,70.3,0,0,1,7.68,15.31,11.82,11.82,0,0,0,3.38,2.23,16.32,16.32,0,0,0,4,1.19,20.11,20.11,0,0,0,2.79.18h.64l.74,0c.7,0,1.39-.18,2.09-.26s1.36-.31,2.05-.46c-.68.18-1.36.38-2,.54s-1.38.29-2.08.34a14.63,14.63,0,0,1-2.19.13c-.39,0-.79,0-1.18,0l-.86-.07a15.92,15.92,0,0,1-4.12-1.06,13.33,13.33,0,0,1-2.77-1.51c.17.49.33,1,.49,1.46l.18.57.21.68h0a3.81,3.81,0,0,0,1,.89,8,8,0,0,0,1.32.62,12.49,12.49,0,0,0,2.92.65c.5.06,1,.08,1.5.11s1,0,1.52,0,1,0,1.51-.08L438,72l-1.51.23c-.5.07-1,.11-1.51.17s-1,0-1.53.08h0c-.42,0-.85,0-1.27,0H432a12.64,12.64,0,0,1-3-.51,7.24,7.24,0,0,1-1.88-.86l.27.94c0,.16.08.32.13.47A74.21,74.21,0,0,1,430,87.16a26.48,26.48,0,0,1,6,15,.13.13,0,0,0,0,.06,64.06,64.06,0,0,0,1.46,13.67c.33,1.77.74,4,1.21,6.78,22.64,23,24.56,35.82,26,45.15.15,1,.29,1.92.44,2.82.11.6.18,1.17.23,1.71.21,2.64-.32,4.58-1.57,5.79a5.59,5.59,0,0,1-4.59,1.26l-.19,0-13.77-4.42.12,1.2c.59,5.88,1.2,12.11,1.8,18.6.15,1.56.29,3.14.42,4.75.83,10.36,1.3,21.77,1.42,34.16h-.66c-.14-14.29-.75-27.28-1.84-38.85-.23-2.52-.47-5-.7-7.43l-2.33-.92-.29-.11c.94,7.23,1.61,14.5,2.09,21.78.56,8.5.84,17,1,25.53h-.41q-.13-12.42-.83-24.82c-.42-7.52-1-15-1.9-22.52l-6.55-2.58c1-17.55-4.41-34.14-8-43a59.39,59.39,0,0,0-3.25-6.41l-.08-.14,2.57-6.75.62.23-2.46,6.46c.89,1.5,8.52,14.84,12.58,37.94l20.64,6.63a7.48,7.48,0,0,0,1.22.06,4.4,4.4,0,0,0,2.94-1.13c1.33-1.29,1.72-3.61,1.14-6.9-.16-.92-.3-1.86-.44-2.84a56,56,0,0,0-4.06-15.26A88.86,88.86,0,0,0,444.15,132c-1-1-2-2-3-2.78,2,1.94,3.82,3.87,5.46,5.77,10.12,11.72,13.56,22.18,14.61,26.49a50.09,50.09,0,0,1,2,9.67,56.77,56.77,0,0,0-1.42-6.33c-.48-1.71-1.05-3.39-1.69-5-.14-.36-.27-.73-.42-1.09a66.18,66.18,0,0,0-6-11.47,84.17,84.17,0,0,0-7.81-10.34q-2.13-2.44-4.44-4.73t-4.77-4.41a63.89,63.89,0,0,1,6.65,5.78,172.4,172.4,0,0,1-11.94-17.18l3.57,2.08.7.42,0-9.39a71.08,71.08,0,0,1-.41-7.25v-.06a25.33,25.33,0,0,0-5.93-14.64l-.09-.09v-.13a71.9,71.9,0,0,0-2.58-15l-.15-.52c-.25-.91-.54-1.85-.84-2.81-.07-.22-.14-.44-.22-.66a70.31,70.31,0,0,0-8.31-17.2,4.4,4.4,0,0,1-.68-3,3.46,3.46,0,0,0-.44-2.24,3.74,3.74,0,0,0-.59-.77,2.44,2.44,0,0,0-1.89.44c-2.64,2.29,2.79,12.49,1.51,15.65-4.08,7.56-1.59,9.32-1.59,9.32a4.22,4.22,0,0,0-3.94,4.18,5.45,5.45,0,0,0,3.25,5.48,4.58,4.58,0,0,1-1.9-.69c-.09,3.7-1.84,7.33-9.32,14.56-8.76,8.67-1.6,19.57-1.6,19.57l-.17,0c.35.49.71,1,1.09,1.42a22.14,22.14,0,0,0,4.16,3.64,19.93,19.93,0,0,0,15.84,2.66,21.48,21.48,0,0,0,9.73-5.56,17.9,17.9,0,0,1-9.29,7,19.62,19.62,0,0,1-5.94,1,22,22,0,0,1-4.77-.56c4.83,2.86,14.2,2.66,14.2,2.66-14.47,3.56-20.88-2-20.88-2a73.47,73.47,0,0,0,.38,10.92c1.14.3,2.27.66,3.38,1-.77,1.74-1.65,3.38-2.51,5,0,.16.06.33.1.5,1.66.6,3.28,1.26,4.92,2-1,1.72-2,3.4-3,5,1.7.76,3.36,1.55,5,2.39-1,1.61-2.06,3.19-3.1,4.75l0,.12c1.58.83,3.16,1.68,4.72,2.56-1.07,1.57-2.11,3.11-3.2,4.65v.06c1.54.89,3.08,1.8,4.6,2.73-1.1,1.54-2.15,3.06-3.26,4.57q2.26,1.41,4.47,2.88l-3.24,4.47q2.17,1.47,4.3,3l-3.22,4.36v.06c1.41,1,2.81,2,4.15,3l-3.14,4.19a2,2,0,0,0,0,.24c1.31,1,2.62,2,3.9,3l-3,4,.06.44c1.22,1,2.44,2,3.64,3l-2.85,3.82c0,.24.05.47.07.71,1.15,1,2.3,2,3.42,2.94L417.86,214c0,.3.05.6.08.9q1.6,1.44,3.18,2.9l-2.72,3.7c0,.23,0,.49,0,.74,1.08,1,2.14,2,3.16,3l-2.83,3.85c0,.13,0,.28,0,.42q1.62,1.59,3.18,3.2l-.64.9H417c-.16-.16-.3-.33-.46-.48l-.1-.1a14.46,14.46,0,0,0,1-2,10.75,10.75,0,0,0-1.63,1.79l-.23.32.3.31.17.17H384.6l-.53-.73-.38-.54,0,.13-.1,1.14h-.67l.06-.55c-.2-1.21-.36-2.42-.54-3.63l-4-8.82,1.45-12.12Zm42.39,28.46a13.28,13.28,0,0,0-1.24-1.64c-.36-.4-.73-.76-1.11-1.11a.94.94,0,0,0-.1-.1,13.16,13.16,0,0,0,1-2,10.31,10.31,0,0,0-1.67,1.81l-.25.32.31.31a19.91,19.91,0,0,0,1.5,1.42,9.32,9.32,0,0,0,1.63,1.13Zm-1.82-9.05a13.28,13.28,0,0,0-1.16-1.1l-.11-.1a13.3,13.3,0,0,0,1-2,10.58,10.58,0,0,0-1.7,1.83l-.25.32.32.31c.52.49,1,1,1.57,1.39a9.9,9.9,0,0,0,1.69,1.12.94.94,0,0,0-.09-.12A11.82,11.82,0,0,0,416.57,219.44Zm-.63-7.41c-.38-.39-.78-.74-1.19-1.09l-.11-.09a13.51,13.51,0,0,0,1-2,11.14,11.14,0,0,0-1.71,1.85l-.26.33.33.3a20.33,20.33,0,0,0,1.61,1.38,10,10,0,0,0,1.74,1.1l-.09-.13A13.34,13.34,0,0,0,415.94,212Zm-.75-7.4a15.31,15.31,0,0,0-1.23-1.06l-.12-.09a14.33,14.33,0,0,0,1.05-2.07,11.29,11.29,0,0,0-1.77,1.88l-.25.33.34.3a21.12,21.12,0,0,0,1.68,1.35,10.37,10.37,0,0,0,1.81,1.07l-.1-.12A12.88,12.88,0,0,0,415.19,204.63Zm-.79-7.38c-.42-.38-.85-.72-1.29-1.05l-.12-.09a13.92,13.92,0,0,0,1-2.08,10.76,10.76,0,0,0-1.78,1.91l-.26.33.36.29a19.56,19.56,0,0,0,1.75,1.32,10.68,10.68,0,0,0,1.86,1.05l-.11-.13A11.91,11.91,0,0,0,414.4,197.25Zm-.93-7.38a16,16,0,0,0-1.32-1l-.12-.09a11.8,11.8,0,0,0,1.06-2.1,13.4,13.4,0,0,0-1.82,1.94l-.26.34.36.29c.59.46,1.18.9,1.79,1.29a11,11,0,0,0,1.92,1l-.11-.12A12.16,12.16,0,0,0,413.47,189.87Zm-1-7.35c-.45-.36-.91-.68-1.38-1l-.12-.09a13.22,13.22,0,0,0,1.06-2.13,12.38,12.38,0,0,0-1.84,2l-.27.34.38.28a22.38,22.38,0,0,0,1.86,1.25,10.77,10.77,0,0,0,2,1A.63.63,0,0,1,414,184,13,13,0,0,0,412.44,182.52Zm-1.15-7.33a17,17,0,0,0-1.43-1,.57.57,0,0,0-.13-.08,13.84,13.84,0,0,0,1-2.15,12.19,12.19,0,0,0-1.85,2l-.26.35.39.27c.63.43,1.27.85,1.93,1.21a12.31,12.31,0,0,0,2.06.92l-.12-.12A13.19,13.19,0,0,0,411.29,175.19Zm-1.3-7.3a15,15,0,0,0-1.47-.92l-.14-.08a13.26,13.26,0,0,0,1-2.18,12.53,12.53,0,0,0-1.85,2.08l-.27.36.41.25c.66.41,1.32.81,2,1.15a13,13,0,0,0,2.12.87,1.31,1.31,0,0,1-.12-.11A11.93,11.93,0,0,0,410,167.89Zm-1.47-7.26a16.65,16.65,0,0,0-1.53-.87l-.14-.07a14,14,0,0,0,1-2.22,13.93,13.93,0,0,0-1.85,2.15l-.26.36.42.24a21.6,21.6,0,0,0,2.08,1.08,12.31,12.31,0,0,0,2.17.8,1.31,1.31,0,0,0-.12-.11A11.92,11.92,0,0,0,408.52,160.63Zm-1.69-7.2a16.88,16.88,0,0,0-1.59-.8l-.14-.07a13.15,13.15,0,0,0,1-2.26,14.17,14.17,0,0,0-1.83,2.23l-.26.38.43.22c.7.35,1.41.7,2.14,1a13.2,13.2,0,0,0,2.26.71l-.13-.1A12.64,12.64,0,0,0,406.83,153.43Zm-2-7.1a13.44,13.44,0,0,0-1.65-.71l-.15-.06a12.05,12.05,0,0,0,.87-2.29,14.63,14.63,0,0,0-1.75,2.31L402,146l.45.19c.74.31,1.46.62,2.21.87a14.8,14.8,0,0,0,2.29.59h0l0,0-.11-.07A11.79,11.79,0,0,0,404.87,146.33Zm-5.34-7,.47.13c.76.22,1.53.44,2.3.63a14.2,14.2,0,0,0,2.39.4l-.15-.08a11.37,11.37,0,0,0-2-1,13.7,13.7,0,0,0-1.73-.52l-.14,0a10.72,10.72,0,0,0,.69-2.34,19.29,19.29,0,0,0-1.59,2.45Zm-18.5,72-.43-.84-.25-.49-.07.53v0l-1.19,10,3,6.58.63,1.37.5,1.12.1.2.17-.6,2.46-8.26Zm-.57-65.22.12,1,.15,1.17,0,.35.38-.89,1.9-4.37-.77-3.76-.16-.81-.1.21-.46,1.08-.37.83-1.07,2.48Zm-1.2,11.73.16.67.22.93.18.73.15-.28,2.83-5-2-4.07-.15-.3-.24.55v0l0-.18-.34.79-.31.75-1.14,2.72Zm-.55,14.24.12.32.1.24,0,.12,0,.12.08-.17.26-.6,2.77-6.16-2.34-3.37-.33-.47,0,0-.32.6-.22.4-2.14,4Zm0,15.87.31.81v0l0-.06.31-.68,2.79-6.2-2.88-6.89-.19-.45-.17.63-.1.35-.21.77-1.86,6.73Zm-2,12,3.22,7.08.11.24.18.39.07-.25.26-.87,2.31-7.75-3.35-7.29-.36-.79,0,0,0-.09-.24.93Zm67.45,251.26c6.37,6.95,12,18.95,9.9,25.06a5.69,5.69,0,0,1-4.58,3.94,8.38,8.38,0,0,1-2.18.06,8.26,8.26,0,0,1-5.38-2.53c-.11-.13-.21-.27-.31-.4-1-1.24-1.65-2.1-4.79-1.28a44.31,44.31,0,0,0-6.4,2.44C424.64,485.3,420.05,491,416,495.93c-7.22,8.9-12.93,15.92-20.74,23.67-6.21,6.17-8.41,12.25-9.17,16.27-.13,2.85-.09,5.28,0,7.23,0,.59,0,1.12,0,1.6,0,2.8-.79,4.87-2.41,6.12a7.83,7.83,0,0,1-5.3,1.35,10.8,10.8,0,0,1-2-.29c-.05,0-5.32-1.5-4.46-7.66,3.64-18.11,17.65-50.1,28.91-75.8,4.77-10.88,8.88-20.28,11.65-27.31,2.25-5.7,2.38-17.57.39-36.23-.5,1.17-1.39,2.71-2.6,3.08L410,408a2,2,0,0,1-1.58-.49,6.18,6.18,0,0,1-1.44-1.86l-.7-1.33c-3.21-6.07-7.59-14.38-22.25-13.64a3.81,3.81,0,0,0-.79.2,7.59,7.59,0,0,0-1.33.71,2.26,2.26,0,0,1-1.71.58,1.63,1.63,0,0,1-.81-.58,4.11,4.11,0,0,1-.48-.69c-.91-1.62,6.7-17.45,14.12-32.1h.75c-8.45,16.69-14.92,30.48-14.29,31.78a3.25,3.25,0,0,0,.49.69.92.92,0,0,0,.38.26.83.83,0,0,0,.55-.11l.25-.51,10-20.45-9.29,20.35a5.07,5.07,0,0,1,2.06-.79H384l9.72-19.77-9,19.75c.64,0,1.26,0,1.86,0l11.3-23.34-10.6,23.37c.56,0,1.1.07,1.62.13l11.72-24-11,24.08c.57.08,1.11.16,1.64.27l11.73-24-11.08,24.17c.54.12,1.07.26,1.57.42l12.26-25.16-11.64,25.37c.52.18,1,.38,1.49.59L406.82,369l-10.63,23.22c.44.21.86.44,1.26.68l9.17-18.61L398,393.19a17.31,17.31,0,0,1,1.46,1l7.6-15.33L400,394.63c.44.38.85.76,1.25,1.15l6.15-11.88-5.68,12.37q.6.64,1.14,1.32l5.2-10.26-4.77,10.82c.39.51.74,1,1.08,1.54l4.11-8-3.72,8.61c.36.58.69,1.16,1,1.72l3.7-7.12-3.33,7.8.71,1.33.18.34,3.4-6.49-3,7.17.17.3a6.86,6.86,0,0,0,.84,1.26l2.95-5.54L408.88,407l0,.06a1.38,1.38,0,0,0,1,.32,1.4,1.4,0,0,0,.29-.09c1.32-.56,2.38-3.28,2.52-3.86-.83-7.55-2-16.24-3.56-26.36-1.06-5-3-12.93-5.27-18.24h18.25c-.05.13-.11.25-.16.39l-.11.3.15.33c.23.53.46,1,.7,1.5a8.91,8.91,0,0,0,.75,1.22l0-.13c-.18-.63-.38-1.17-.58-1.7s-.34-.8-.52-1.17l-.05-.1c.06-.21.11-.42.17-.64h2.19l.26.56c-.48,1.31-.94,2.61-1.38,3.91.52,1.18,1,2.36,1.52,3.54-.44,1.28-.87,2.57-1.27,3.86v.09c.48,1.17.95,2.33,1.4,3.49-.39,1.25-.76,2.49-1.12,3.74,0,.11,0,.23,0,.34.44,1.12.86,2.24,1.27,3.37-.34,1.19-.67,2.39-1,3.59l0,.63c.38,1.07.76,2.15,1.13,3.22-.3,1.13-.59,2.26-.85,3.4,0,.34,0,.68,0,1,.34,1,.68,2,1,3-.25,1.08-.48,2.16-.71,3.25l.06,1.34c.29.95.58,1.9.86,2.85-.21,1-.4,2-.59,3l.06,1.41c.39,1,.77,2,1.12,2.94-.29,1.08-.56,2.16-.82,3.25,0,.51.05,1,.07,1.53.29.89.57,1.79.84,2.68-.2,1-.38,2.05-.55,3.07,0,.45,0,.88.06,1.32.29,1,.58,2,.84,3.06q-.27,1.62-.51,3.24c0,.35,0,.68.06,1,.29,1.06.56,2.13.82,3.19-.19,1-.34,2-.47,3,.15,2.45.27,4.08.33,4.64a8.13,8.13,0,0,1-1.82,6.15A309.07,309.07,0,0,0,400.19,487l.88-1.42,1.92-3.06,2.08-3c.7-1,1.36-2,2.09-3l2.27-2.82,4.52-5.6c3-3.73,6-7.46,9-11.21,1.48-1.88,2.94-3.77,4.4-5.66.73-1,1.45-1.9,2.16-2.86l1-1.44c.33-.47.7-1,1-1.41l.43-.72.63.44a57.41,57.41,0,0,1,6.64,5.57,54.9,54.9,0,0,1,5.73,6.46,38.54,38.54,0,0,1,4.39,7.42,28,28,0,0,1,1.41,4.07,24.57,24.57,0,0,1,.65,4.24,24.28,24.28,0,0,0-.91-4.16,30.6,30.6,0,0,0-1.59-3.94,37.82,37.82,0,0,0-4.66-7.08l-.08-.09,1.17,18.51L443.42,457c-.7-.82-1.4-1.63-2.14-2.4l1.15,18.29L440.6,454c-.7-.7-1.39-1.4-2.13-2.06l1.17,18.46-1.84-19.07c-.69-.6-1.39-1.19-2.1-1.78l1.16,18.3L435,449c-.65-.51-1.31-1-2-1.49l1.2,18.86L432.38,447l0,0-.57.88-1,1.49h0L432,468.74l-1.8-18.59c-.51.71-1,1.42-1.53,2.13l-.13.18,1.22,19.35-1.8-18.59c-.55.75-1.11,1.49-1.67,2.23l1.19,18.88L425.7,456.2c-.47.61-.92,1.23-1.39,1.83l-.29.39,1.2,19-1.77-18.31-1.68,2.18L423,480.39l-1.78-18.33c-.56.72-1.12,1.45-1.69,2.17L420.7,483,419,464.94l-1.68,2.13,1.21,19.1-1.79-18.38c-.41.53-.82,1.06-1.24,1.58l-.44.54,1.21,19.14-1.78-18.42-1.68,2.11,1.2,19-1.77-18.31L411,475l-.47.59,1.19,18.8-1.75-18.09-1.19,1.49-.5.69,1.2,18.93-1.76-18.15c-.34.48-.67,1-1,1.43l-.66.94,1.19,18.77-1.75-18-.84,1.2-.82,1.29,1.19,18.8-1.74-17.94-.54.86-1.11,1.77,1.18,18.73-1.73-17.86-.24.38-1.43,2.5,1,15.84L398.85,493c-.53.93-1.08,1.85-1.59,2.79l0,.06.85,14.39-1.36-13.43L395.59,499c-.16.31-.32.62-.49.93l.8,13.49-1.28-12.58c-.23.44-.46.89-.68,1.34l-1,2.07.73,12.71-1.21-11.73-.08.17c-2.11,4.28-4,8.66-5.88,13.06-3.69,8.83-7,17.82-9.84,27,1.09-4.67,2.45-9.27,3.88-13.85.7-2.3,1.48-4.57,2.26-6.84s1.61-4.52,2.47-6.77c.44-1.12.88-2.25,1.33-3.37,2.4-7.08,7.18-17.62,12.33-28.26,1.1-3.18,2.34-6.3,3.63-9.4q2.15-5.08,4.54-10.06,1.22-2.47,2.46-4.94t2.62-4.86a109.19,109.19,0,0,1,5.78-9.31,10,10,0,0,0,.13-1.05q0-.63.06-1.26c0-.85,0-1.71,0-2.57s-.1-1.72-.15-2.58l-.09-1.06c-1.2-2.61-4.46,2.61-6.72,6.84-2.61,6.32-6,14-9.75,22.61-11.24,25.67-25.23,57.62-28.86,75.64-.78,5.54,3.79,6.86,4,6.91a11.15,11.15,0,0,0,3.64.22,6.15,6.15,0,0,0,3.09-1.16c1.45-1.13,2.17-3,2.16-5.6,0-.47,0-1,0-1.58,0-1.86-.09-4.41.06-7.33.77-4.15,3-10.37,9.35-16.66,7.79-7.72,13.48-14.74,20.7-23.61,4.06-5,8.67-10.68,14.46-17.49l.12-.09c1.57-.7,2.89-1.24,4-1.67,5.5-2.07,6.56-1.19,8,.68.1.13.2.27.31.4a8,8,0,0,0,6.34,2.28,5.61,5.61,0,0,0,.59-.06,5,5,0,0,0,4.06-3.5c1.84-5.32-2.72-16.72-9.76-24.39-.41-.46-.81-.89-1.22-1.32a55.09,55.09,0,0,1-9.23-8.67,10,10,0,0,1-1.87-3.42,17.78,17.78,0,0,1-.57-4c-.07-3.24.81-6.56,2.66-11.5.29-2.44.68-5.53,1.15-9.23.06-.47.12-.94.18-1.43l.08-.6c1.22-9.59,2.63-20.79,4.12-33.76.17-1.47.34-2.95.51-4.47.56-4.95,1.08-9.74,1.57-14.45h.67c-.5,4.71-1,9.49-1.57,14.44.59,1.46,10.34,25.49,12.24,33.65a21.52,21.52,0,0,1,.5,3.09c.26,3.16-.63,4.57-1.54,5.2a2.88,2.88,0,0,1-2.82.17,3,3,0,0,1-.47-.26c-1.82-1.22-7.19-2.66-9.49-2a2.41,2.41,0,0,1-.43.1,3,3,0,0,1-1.41,0,2.79,2.79,0,0,1-1.33-.8c-.05.36-.09.71-.14,1.06-1,7.75-1.63,12.89-1.74,14.82-.64,10.8,3.24,15,9.11,21.28Zm-8.64-39.75a2.29,2.29,0,0,0,2.87,1c2.49-.75,8.08.75,10,2.06a2.47,2.47,0,0,0,.63.31,2.15,2.15,0,0,0,1.91-.22c.82-.56,2-2.29.77-7.59a180.34,180.34,0,0,0-5.94-17.57c-1-1.13-1.88-1.41-2.68-1.1-2.22.86-3.77,6.1-4.59,9.72-.08.65-.16,1.3-.25,1.95-.31,2.3-.64,4.59-1,6.88.12-2.32.32-4.63.53-6.94s.45-4.61.7-6.92c.13-1.16.27-2.33.41-3.5a.53.53,0,0,0-.64-.1C437.27,397.61,436.34,404.92,435.51,411.48Zm-9.26,23.68c-.09-.42-.19-.8-.29-1.17l0-.1c.07-.61.13-1.25.18-2a15,15,0,0,0-.35,1.73l0,.31.08.33c.13.5.27,1,.4,1.49a11,11,0,0,0,.43,1.21l0-.14C426.49,436.22,426.36,435.68,426.25,435.16Zm-.39-7.45c-.1-.41-.21-.79-.31-1.16l0-.1c.06-.61.13-1.25.18-2a11.19,11.19,0,0,0-.35,1.73l-.05.3.09.33.42,1.49a10.55,10.55,0,0,0,.43,1.22c0-.05,0-.08,0-.12C426.1,428.79,426,428.24,425.86,427.71Zm-.5-7.42c-.11-.42-.23-.79-.35-1.16a.42.42,0,0,1,0-.1c.08-.61.15-1.25.21-2a12.37,12.37,0,0,0-.4,1.73l-.06.31.11.33c.16.52.31,1,.47,1.48a12.57,12.57,0,0,0,.49,1.21l0-.13C425.64,421.36,425.5,420.81,425.36,420.29Zm-.47-7.43c-.14-.41-.29-.79-.43-1.15a.42.42,0,0,1,0-.1c.11-.62.23-1.26.32-2a11,11,0,0,0-.57,1.76l-.08.31.12.32c.2.53.39,1,.59,1.48a7.74,7.74,0,0,0,.6,1.19l0-.12C425.22,413.92,425.06,413.38,424.89,412.86Zm-.25-7.46c-.11-.42-.23-.8-.35-1.18l0-.1c.09-.6.17-1.24.24-2a12,12,0,0,0-.43,1.72l-.06.31.09.33c.16.53.32,1,.47,1.5a10.64,10.64,0,0,0,.49,1.22l0-.13C424.91,406.47,424.78,405.92,424.64,405.4ZM424.3,398c-.12-.42-.25-.8-.38-1.18l0-.1c.1-.6.19-1.24.27-2a11.64,11.64,0,0,0-.48,1.72l-.07.31.1.32c.17.53.34,1.05.51,1.5a10.53,10.53,0,0,0,.53,1.22l0-.12C424.59,399,424.45,398.48,424.3,398Zm-.33-7.44c-.13-.42-.26-.81-.4-1.18l0-.1c.12-.61.23-1.24.32-2a11.26,11.26,0,0,0-.55,1.72l-.08.31.12.32c.17.53.35,1.05.54,1.5a8.25,8.25,0,0,0,.57,1.22l0-.12C424.28,391.59,424.13,391,424,390.52Zm-.3-7.45c-.14-.42-.28-.8-.43-1.17a.42.42,0,0,1,0-.1c.13-.61.25-1.24.35-2a11.06,11.06,0,0,0-.6,1.72l-.09.3.12.33c.2.53.39,1,.59,1.5a9.22,9.22,0,0,0,.61,1.22l0-.13C424,384.14,423.84,383.6,423.67,383.07Zm-.3-7.44c-.14-.42-.3-.8-.46-1.17l0-.1c.14-.61.28-1.25.4-2a9.84,9.84,0,0,0-.67,1.71l-.09.31.13.33c.2.53.41,1,.62,1.5a9.72,9.72,0,0,0,.66,1.22l0-.13C423.73,376.7,423.55,376.15,423.37,375.63ZM422.18,367l.13.33c.22.52.44,1,.67,1.49a6.89,6.89,0,0,0,.7,1.22.56.56,0,0,0,0-.12,17.12,17.12,0,0,0-.54-1.7c-.16-.42-.32-.8-.49-1.18a1,1,0,0,1,0-.1c.15-.6.3-1.24.42-2a9.9,9.9,0,0,0-.71,1.72ZM413.26,75.75c0,.45.58.78,1.21.73s1.12-.46,1.08-.91-.58-.77-1.21-.72S413.23,75.3,413.26,75.75ZM411,74.52a2.79,2.79,0,0,0-.14,2,3.14,3.14,0,0,0,1.24,1.62,3.93,3.93,0,0,0,3.84.27,3.41,3.41,0,0,0,1.47-1.29,2.62,2.62,0,0,0,.37-1.84,3,3,0,0,1-2,2.66,3.63,3.63,0,0,1-3.27-.35,2.41,2.41,0,0,1-1-2.88,3.52,3.52,0,0,1,2.7-2.08A3.39,3.39,0,0,0,411,74.52Zm20.76,64.66.65,1.06.61,1.09,1.24,2.16,1.15,2.2c.77,1.47,1.49,3,2.21,4.46s1.37,3,2,4.55c1.31,3.05,2.49,6.15,3.58,9.28l.81,2.36.75,2.37c.51,1.58,1,3.18,1.42,4.78a85.24,85.24,0,0,0-2.5-9.67c-1-3.18-2.18-6.29-3.45-9.38a98,98,0,0,0-4.37-9,75.45,75.45,0,0,0-5.4-8.4Zm3.25,1.14c.47.67.95,1.34,1.37,2.05l1.33,2.08c.44.7.82,1.42,1.24,2.13.84,1.41,1.58,2.88,2.36,4.33.37.73.71,1.48,1.07,2.22s.7,1.48,1,2.24c.69,1.49,1.29,3,1.91,4.54l.84,2.32.81,2.33a86.88,86.88,0,0,1,2.62,9.51c-.19-1.64-.53-3.26-.87-4.87s-.8-3.21-1.27-4.79A78.67,78.67,0,0,0,444,155.1c-.33-.76-.67-1.51-1.05-2.25s-.73-1.48-1.11-2.22c-.8-1.44-1.54-2.93-2.45-4.31a66.32,66.32,0,0,0-5.79-8ZM438.9,142c1.75,2.49,3.49,5,5,7.61a85.14,85.14,0,0,1,7.44,16.52,68,68,0,0,1,2.27,8.8,43.45,43.45,0,0,0-.68-4.51c-.32-1.49-.68-3-1.11-4.44a64.85,64.85,0,0,0-7.48-16.64c-.8-1.3-1.7-2.53-2.58-3.77-.43-.63-.93-1.21-1.4-1.8S439.39,142.58,438.9,142Zm6.15,2.74c-.5-.65-1.09-1.23-1.63-1.85l-1.67-1.82c1,1.31,2.08,2.55,3.05,3.87l1.44,2,.72,1,.67,1c.44.69.89,1.38,1.34,2.06l1.25,2.11.62,1.06.57,1.08c.37.73.75,1.45,1.11,2.18a64.92,64.92,0,0,1,3.64,9.1l.37,1.17.32,1.18c.22.79.39,1.59.58,2.39a37.42,37.42,0,0,1,.79,4.85,38.86,38.86,0,0,0-1.58-9.74,58.86,58.86,0,0,0-3.52-9.23c-.37-.74-.77-1.46-1.16-2.2l-.58-1.09-.64-1.05-1.28-2.12-1.41-2-.71-1-.76-1Zm7,5.27,1.23,1.89,1.13,1.94c.39.65.74,1.31,1.07,2s.7,1.32,1,2a56.17,56.17,0,0,1,3.22,8.4c.45,1.44.79,2.9,1.1,4.37a37.64,37.64,0,0,1,.66,4.47,35.84,35.84,0,0,0-1.27-9,50.8,50.8,0,0,0-3.11-8.55c-.31-.69-.7-1.35-1-2s-.7-1.34-1.11-2l-1.17-1.95c-.42-.63-.86-1.25-1.29-1.87-.84-1.26-1.84-2.41-2.77-3.6-.47-.6-1-1.12-1.52-1.68s-1-1.11-1.56-1.65c.93,1.2,1.93,2.32,2.82,3.54S451.3,148.71,452.08,150Zm-70.26,75.06.57,1.37.53,1.28.43,1,0-.16,2.05-7.56-2.68,2.67-.14-.15-.4-.45-.4-.44-.35-.39L380,220.62Zm-2-19.36.15.41.18.51s0-.09.06-.22l.25-.91c.6-2.11,1.84-6.51,1.88-6.59s-1.44,1.78-2.21,2.75l-.31.41-.12.14,0,0-.18-.2-1.68-1.93ZM379,187.51l.08.22.24-.56,2.3-5.23-2.37,1.83L379,184l0,0-.1.08-.2-.19-1.12-1.16,1.17,3.62.34,1Zm-.21-16,.17.53.07.23.31-.72,2.24-5.22-2.13,1.8-.37.31-.14.12-.15-.13h0l-1.35-1.17,1.27,4Zm.7-14.34.18,1.31.17,1.21.12-.23,2.33-4.4-2.14,2h0l-.31-.62-.23-.48-.2-.39-.18-.37.13,1ZM380.72,146l.11,1.36.05.63.34-.79,1.6-3.71-1.29,1.31-.37.37,0-.07-.22-.59-.17-.47-.23-.6.11,1.37Zm35.84-73.13c1.87,1.4,2.9-1.06,2.9-1.06l-2.24.18c-.9.08-1.05-.64-1.6-1.33s-.78.06-.78.06C414.19,71.39,414.69,71.43,416.56,72.84Zm7.54-4.68c.07.26.16.53.23.79.22.72.39,1.46.58,2.18l.18.69c.49,1.91.93,3.83,1.3,5.76.31,1.45.49,2.93.75,4.39s.38,2.94.6,4.41c-.07-1.48-.16-3-.28-4.45l-.27-2.22c-.08-.74-.17-1.48-.3-2.21-.23-1.48-.5-2.94-.84-4.39-.07-.34-.15-.66-.23-1s-.09-.4-.14-.6c-.23-.92-.47-1.83-.71-2.75,0,0,0-.08,0-.11-.07-.24-.15-.48-.22-.72a63.73,63.73,0,0,0-2.85-7.56,38.47,38.47,0,0,0-4.51-7.69,36.87,36.87,0,0,1,2.2,3.86c.68,1.32,1.28,2.67,1.85,4q1.39,3.34,2.47,6.83C424,67.66,424,67.91,424.1,68.16Zm-2.92,3.92s.61,9.18-3.86,10.35c0,0,2,2.6.93,3.32s-3-3-4,1c0,0,1.44,2.34,3.15,2.26s5-1.75,3.64-3.75-1.86-2.77-.77-3.8S423.56,78.4,421.18,72.08Zm9.08,27.35c-.18-.7-.37-1.39-.53-2.09s-.34-1.4-.52-2.11c-.36-1.4-.67-2.81-1.1-4.24a22.49,22.49,0,0,0,.08,4.42,30.52,30.52,0,0,0,.79,4.35,30.92,30.92,0,0,0,1.44,4.19,18.08,18.08,0,0,0,2.18,3.85l-1.21-4.2C431,102.21,430.61,100.82,430.26,99.43Z" transform="translate(-197.12 -43.44)" style="fill: #bd9a5f"/>
  <path id="kas-txt-min" d="M320.55,332.61c.08,2,.12,3.47.12,4.46,0,.22-.11.33-.34.33s-.41,0-.74,0l-.73,0-.75,0c-.33,0-.58,0-.74,0s-.34-.15-.34-.44c0-1.15,0-2.87.11-5.16s.11-4,.11-5.15c0-.17,0-.26-.11-.26a.21.21,0,0,0-.19.15c-.46,1-1.55,3.61-3.26,7.87-.28.82-.68,1.85-1.21,3.08-.06.11-.39.17-1,.17-.85,0-1.32-.08-1.41-.23-.31-.73-.74-1.75-1.31-3.07q-1.12-2.69-3.45-8a.46.46,0,0,0-.18-.19.34.34,0,0,0-.11.29c0,1.17,0,2.91.06,5.24s.07,4.07.07,5.24c0,.29-.12.44-.34.44s-.39,0-.71,0l-.7,0-.72,0c-.32,0-.56,0-.73,0s-.34-.08-.34-.25q0-1.5.15-4.5c.09-2,.14-3.5.14-4.5s-.05-2.6-.14-4.68-.15-3.63-.15-4.67c0-.17.11-.27.32-.3a23.32,23.32,0,0,1,2.77-.24c.09,0,.22.18.38.55q3.27,7.2,5.63,12.86a4.56,4.56,0,0,0,.66,1.32c.09,0,.28-.36.58-1.08q1.84-4.38,5.1-13c.14-.35.29-.52.45-.52.31,0,.77,0,1.39.05s1.08.05,1.38.05.34.11.34.33c0,1,0,2.59-.1,4.67s-.1,3.64-.1,4.68S320.48,330.63,320.55,332.61Zm15.65-5.87q4.08,10.41,4.08,10.5c0,.11-.11.16-.33.16s-.42,0-.75,0l-.75,0-.77,0c-.35,0-.6,0-.77,0s-.58-.68-1-2-.79-2.05-1.2-2.07-1.2,0-2.61,0H330c-1.49,0-2.33,0-2.54,0s-.67.72-1,2.08-.65,2-.84,2h-3.05c-.18,0-.27-.06-.27-.19a2.11,2.11,0,0,1,.19-.6l3.32-9.07c.28-.73,1.12-2.84,2.54-6.32.25-.58.6-1.45,1-2.61.11-.34.22-.51.35-.51a7.11,7.11,0,0,1,.76.06,5.39,5.39,0,0,0,.76.07,5.18,5.18,0,0,0,.73-.07,5.59,5.59,0,0,1,.73-.08c.08,0,.19.17.34.5Q333.31,319.34,336.2,326.74Zm-2.23,3a23.41,23.41,0,0,0-1.22-3.52c-.78-2-1.34-3.34-1.66-4q-2.8,7.14-2.8,7.48c0,.31.34.49,1,.54H332C333.32,330.31,334,330.13,334,329.77Zm20.31,4.44a3.86,3.86,0,0,0-.62.08l-.62.1q-2.55.24-7.54.24-.24,0-.24-3c0-.47,0-1.19,0-2.14v-2.14c0-1,0-2.41.11-4.33s.11-3.36.11-4.32c0-.17-.11-.25-.33-.25s-.41,0-.76,0l-.75,0-.76,0c-.34,0-.58,0-.75,0s-.34.1-.34.29q0,1.58.15,4.71c.09,2.09.14,3.65.14,4.7s0,2.48-.1,4.46-.1,3.47-.1,4.46a.29.29,0,0,0,.33.33c.64,0,1.58,0,2.83,0l2.83,0q1,0,3,.12c1.34.07,2.34.11,3,.11a.45.45,0,0,0,.47-.39,12.06,12.06,0,0,0,.2-2.69C354.56,334.3,354.47,334.21,354.28,334.21ZM374,327.9a10.09,10.09,0,0,1-2.57,6.92,8.9,8.9,0,0,1-13.32,0,10.55,10.55,0,0,1,0-13.84,8.81,8.81,0,0,1,13.28,0A10,10,0,0,1,374,327.9Zm-3.26,0a7,7,0,0,0-1.65-4.62,5.43,5.43,0,0,0-4.35-2.08,5.32,5.32,0,0,0-4.3,2.11,7.4,7.4,0,0,0,0,9.24,5.32,5.32,0,0,0,4.3,2.11,5.4,5.4,0,0,0,4.36-2.11A7.08,7.08,0,0,0,370.75,327.87Zm11.35-6.38a6.65,6.65,0,0,1,2.17.48l1.31.48a.24.24,0,0,0,.21-.12,10.5,10.5,0,0,0,.53-1.19q.48-.92.75-1.35a.56.56,0,0,0-.14-.18,7.12,7.12,0,0,0-2.3-.95,10.67,10.67,0,0,0-2.49-.35,6,6,0,0,0-4.17,1.46,5.22,5.22,0,0,0-1.65,4,4.51,4.51,0,0,0,1.71,3.71q.06.08,3.15,1.83a2.75,2.75,0,0,1,1.69,2.3c0,1.8-1.4,2.71-4.19,2.71-.23,0-.56,0-1-.07a9.61,9.61,0,0,0-1-.07c-.13,0-.2.06-.2.19a.66.66,0,0,0,0,.23c.16.54.27.95.34,1.22q.19,1,.24,1.5c.08.22.6.32,1.57.32A8.68,8.68,0,0,0,384,336.1a5.57,5.57,0,0,0,2.4-4.77,4.54,4.54,0,0,0-1.75-3.76c-.2-.16-1.29-.74-3.24-1.76-1.17-.61-1.75-1.31-1.75-2.13Q379.61,321.49,382.1,321.49Zm12.94,0c.08,0,.19,0,.28,0a7.25,7.25,0,0,1,1.89.44l1.3.48a.25.25,0,0,0,.22-.12l.06-.13c.14-.28.24-.51.33-.72l.14-.34.09-.18c.22-.4.39-.72.54-1a1.8,1.8,0,0,1,.11-.2.56.56,0,0,0-.13-.18,7.32,7.32,0,0,0-2.3-.95h0c-.23-.06-.43-.09-.65-.13a9.76,9.76,0,0,0-1.82-.22c-.34,0-.66,0-1,.07a5.68,5.68,0,0,0-3.19,1.39,5.22,5.22,0,0,0-1.65,4,4.53,4.53,0,0,0,1.7,3.71q.07.08,3.15,1.83a2.77,2.77,0,0,1,1.7,2.3c0,1.8-1.4,2.71-4.2,2.71-.22,0-.56,0-1-.07a9.29,9.29,0,0,0-1-.07c-.14,0-.2.06-.2.19a.66.66,0,0,0,0,.23c.15.54.26.95.34,1.22q.18,1,.24,1.5c.07.22.59.32,1.57.32a8.71,8.71,0,0,0,5.29-1.57,5.55,5.55,0,0,0,1.91-2.39,5.92,5.92,0,0,0,.49-2.38,4.53,4.53,0,0,0-1.59-3.6l-.16-.16c-.21-.16-1.29-.74-3.25-1.76-1.16-.61-1.74-1.31-1.74-2.13Q392.55,321.49,395,321.49Zm9,13.34a10.55,10.55,0,0,1,0-13.84,8.8,8.8,0,0,1,13.27,0,10.57,10.57,0,0,1,0,13.83,8.89,8.89,0,0,1-13.31,0Zm.7-6.93a7,7,0,0,0,1.63,4.62,5.3,5.3,0,0,0,4.3,2.11,5.41,5.41,0,0,0,4.36-2.11,7.07,7.07,0,0,0,1.63-4.65,7,7,0,0,0-1.65-4.62,5.4,5.4,0,0,0-4.34-2.08,5.3,5.3,0,0,0-4.3,2.11A7,7,0,0,0,404.79,327.9Zm20.87-.55c0-1,0-2.41.11-4.33s.1-3.36.1-4.32c0-.17-.1-.25-.32-.25s-.42,0-.76,0l-.76,0-.75,0c-.34,0-.59,0-.75,0a.28.28,0,0,0-.32.24s0,0,0,.05q0,1.58.15,4.71c0,1,.07,1.81.1,2.55v.15c0,.8,0,1.47,0,2,0,.94,0,2.35-.1,4.2v.26c-.07,2-.11,3.47-.11,4.46a.3.3,0,0,0,.34.33c.44,0,1,0,1.76,0l1.07,0,2.83,0q1,0,3,.12c1.34.07,2.34.11,3,.11a.45.45,0,0,0,.47-.39,12.06,12.06,0,0,0,.2-2.69c0-.17-.09-.26-.28-.26a3.86,3.86,0,0,0-.62.08l-.63.1q-2.54.24-7.53.24c-.17,0-.25-1-.25-3,0-.47,0-1.19,0-2.14Zm31,4.67a5,5,0,0,0-.77.66,7.83,7.83,0,0,1-1.65,1.23,5.35,5.35,0,0,1-2.56.67,4.85,4.85,0,0,1-3.24-1.12,4.33,4.33,0,0,1-.55-.58c-.12-.14-.25-.25-.36-.4a7.85,7.85,0,0,1-1.32-4.64,7.67,7.67,0,0,1,1.3-4.55l0-.05c.1-.14.22-.23.32-.35a4.72,4.72,0,0,1,1.25-1l.38-.2a5.1,5.1,0,0,1,1.78-.41c.12,0,.24,0,.37,0h.07a5,5,0,0,1,2.52.65l.05,0a3.64,3.64,0,0,1,.35.24,8.59,8.59,0,0,1,1.15,1c.43.45.71.67.83.67s.35-.34.76-1l.07-.1,0-.05a4.79,4.79,0,0,0,.72-1.36.83.83,0,0,0-.22-.48,7.16,7.16,0,0,0-3.08-2.19c-.13-.05-.27-.08-.4-.12a9.32,9.32,0,0,0-2.38-.42c-.16,0-.3,0-.47,0h0a10.12,10.12,0,0,0-1.86.18l-.48.14a8.64,8.64,0,0,0-1.5.54c-.18.09-.34.22-.51.32h0a7.81,7.81,0,0,0-1,.65,8.49,8.49,0,0,0-1.05,1c0,.06-.1.09-.14.14a11.39,11.39,0,0,0-2.31,6.93,11.65,11.65,0,0,0,.81,4.37,9.54,9.54,0,0,0,.56,1.21c.06.11.15.21.22.32a8.38,8.38,0,0,0,.68,1,8,8,0,0,0,6.49,3,8.3,8.3,0,0,0,6.54-3.06.87.87,0,0,0,.26-.46,6.68,6.68,0,0,0-.81-1.18A6.15,6.15,0,0,0,456.67,332Zm15.87-5.28q4.08,10.41,4.08,10.5c0,.11-.11.16-.33.16s-.42,0-.75,0l-.75,0-.77,0c-.34,0-.6,0-.77,0s-.58-.68-1-2-.79-2.05-1.2-2.07-1.2,0-2.61,0h-2.14c-1.49,0-2.33,0-2.54,0s-.67.72-1,2.08-.64,2-.84,2h-3.05c-.18,0-.27-.06-.27-.19a2.53,2.53,0,0,1,.19-.6l3-8.11.26-.72.09-.24c.28-.73,1.12-2.84,2.54-6.32.06-.14.13-.3.2-.48s.21-.51.33-.82l.5-1.31c.11-.34.23-.51.35-.51a6.92,6.92,0,0,1,.76.06,5.39,5.39,0,0,0,.76.07,5.18,5.18,0,0,0,.73-.07,5.77,5.77,0,0,1,.73-.08c.08,0,.19.17.34.5Q469.66,319.34,472.54,326.74Zm-2.23,3a23.41,23.41,0,0,0-1.22-3.52c-.78-2-1.34-3.34-1.66-4-.18.44-.34.85-.5,1.26l-.34.89c-.49,1.26-.89,2.31-1.2,3.12-.09.24-.17.45-.24.66a12.11,12.11,0,0,0-.52,1.55c0,.31.34.49,1,.54h2.72C469.66,330.31,470.31,330.13,470.31,329.77ZM493,319.19c0-.4,0-.58,0-.51a.3.3,0,0,0-.34-.26c-.16,0-.41,0-.74,0s-.57,0-.74,0-.41,0-.74,0-.59,0-.76,0-.3.09-.3.27c0,.7,0,1.74.07,3.14s.07,2.45.07,3.15a17.61,17.61,0,0,1-1.88,4.17q-1.31,2.44-2.41,4.34-4.2-7.28-4.19-8.2c0-.74,0-1.84.14-3.31s.14-2.57.14-3.3c0-.17-.11-.26-.31-.26s-.41,0-.75,0-.58,0-.74,0-.42,0-.75,0-.58,0-.75,0-.33.17-.33.5c0,.71,0,1.78-.07,3.21s-.08,2.5-.08,3.22a39.08,39.08,0,0,0,2.72,5.6c2.12,4,3.2,6,3.22,6.06.13.26.26.39.38.39h2.72c.17,0,.31-.13.45-.39l3.35-6.25q2.66-5,2.66-5.57,0-1,0-3T493,319.19Zm5.79,8.59c0-1,0-2.52.11-4.54s.11-3.54.11-4.55c0-.18-.12-.27-.35-.27s-.41,0-.73,0-.57,0-.73,0-.45,0-.8,0-.62,0-.79,0-.31.11-.31.34c0,1,.05,2.5.14,4.51s.15,3.51.15,4.51,0,2.59-.15,4.66-.14,3.63-.14,4.65c0,.21.12.31.34.31s.41,0,.75,0l.75,0,.75,0c.33,0,.58,0,.74,0s.39-.09.39-.28c0-1,0-2.59-.11-4.67S498.79,328.82,498.79,327.78Zm15.74-1q4.08,10.41,4.07,10.5c0,.11-.1.16-.32.16s-.42,0-.75,0l-.75,0-.78,0c-.34,0-.59,0-.76,0s-.58-.68-1-2-.79-2.05-1.2-2.07-1.2,0-2.61,0h-2.14c-1.49,0-2.34,0-2.54,0s-.67.72-1,2.08-.65,2-.84,2h-3c-.18,0-.27-.06-.27-.19a2.11,2.11,0,0,1,.19-.6l3.31-9.07q.42-1.1,2.55-6.32c.25-.58.59-1.45,1-2.61.1-.34.22-.51.35-.51a7.11,7.11,0,0,1,.76.06,5.28,5.28,0,0,0,.75.07,5.17,5.17,0,0,0,.74-.07,5.59,5.59,0,0,1,.73-.08c.08,0,.19.17.33.5Q511.65,319.34,514.53,326.74Zm-2.23,3a23.41,23.41,0,0,0-1.22-3.52c-.78-2-1.34-3.34-1.66-4q-2.81,7.14-2.81,7.48c0,.31.35.49,1,.54h2.72C511.65,330.31,512.3,330.13,512.3,329.77Zm20.84,3.9a34.46,34.46,0,0,1,1.62,3.63c0,.07-.07.1-.22.1s-.43,0-.78,0l-.79,0-.84,0c-.38,0-.66,0-.85,0a.51.51,0,0,1-.47-.33q-.43-.93-2.46-5.7a1.15,1.15,0,0,0-1-.6h-1.23c-1.25,0-2,0-2.22.05s-.29.26-.29.69c0,.64,0,1.58.09,2.84s.09,2.2.09,2.82c0,.19-.09.29-.27.29s-.45,0-.82-.07-.64-.06-.83-.06l-.71,0c-.31,0-.55,0-.7,0s-.34-.1-.34-.31c0-1,0-2.5.14-4.51s.15-3.51.15-4.51q0-4.27-.32-9.12v-.22q0-.27.57-.27c.77,0,1.94,0,3.48-.06s2.71-.06,3.47-.06a7.58,7.58,0,0,1,4.82,1.43,5.4,5.4,0,0,1,2,4.5,7.56,7.56,0,0,1-.54,3.15,6.16,6.16,0,0,1-2.11,2.31c-.17.12-.25.23-.25.34A36.64,36.64,0,0,0,533.14,333.67ZM531.05,325q0-2.44-1.41-3.27a8,8,0,0,0-3.74-.61c-1.47,0-2.21.12-2.24.35-.06.49-.09,1.79-.09,3.91V328l.17.05.8.07c.86,0,1.79.07,2.78.07Q531.05,328.18,531.05,325ZM205.58,273.7l9.56,14.1h10.08L212.9,271.37l11.16-14H215l-9.41,13.14V257.4h-8.11v30.4h8.11Zm27.91,14.1h-8L237,257.4h9.78l11.51,30.4h-8.67l-2.16-6.44h-11.7Zm4.3-12.21h7.75l-3.81-11.4Zm31.32-.54c.38.14.93.34,1.64.58,3,1,4.45,2.17,4.45,3.44a2.76,2.76,0,0,1-1.39,2.44,6.89,6.89,0,0,1-3.78.9,16.11,16.11,0,0,1-3.82-.5,25,25,0,0,1-4.16-1.47l-.69,6.78a35.1,35.1,0,0,0,4.57,1,33.72,33.72,0,0,0,4.59.32q6.33,0,9.67-2.65t3.33-7.66a8.58,8.58,0,0,0-.75-3.74,7.7,7.7,0,0,0-2.35-2.83,26.5,26.5,0,0,0-6.93-3l-1.35-.43A5.3,5.3,0,0,1,270,267a2.33,2.33,0,0,1-.71-1.68,2.39,2.39,0,0,1,1.38-2.15,7.86,7.86,0,0,1,3.84-.78,14.46,14.46,0,0,1,3.32.4,21.88,21.88,0,0,1,3.57,1.18l.6-6.26a27.26,27.26,0,0,0-4-.83,35.56,35.56,0,0,0-4.32-.26q-6.12,0-9.39,2.46a8.25,8.25,0,0,0-3.28,7,7.6,7.6,0,0,0,1.86,5.28A15.38,15.38,0,0,0,269.11,275.05Zm28.08-3.29c0-1.16-.07-2.49-.2-4s-.35-3.19-.63-5c.3,1.2.62,2.31,1,3.33a25.62,25.62,0,0,0,1.18,2.83l9.15,18.89h10.08V257.4h-7.32v17.22c0,1.05.06,2.19.18,3.45s.31,2.63.57,4.13c-.48-1.59-.93-2.92-1.33-4s-.74-1.95-1-2.56L300,257.4H289.88v30.4h7.31Zm31,12.54q-4-4.2-4-11.71t4-11.71q4-4.23,11.11-4.22t11.07,4.22q4,4.23,4,11.71t-4,11.71q-4,4.21-11.07,4.21T328.22,284.3Zm4.16-11.79a12.45,12.45,0,0,0,1.9,7.27,5.91,5.91,0,0,0,5.07,2.72,5.84,5.84,0,0,0,5-2.71,12.49,12.49,0,0,0,1.89-7.28,12.35,12.35,0,0,0-1.9-7.23,5.84,5.84,0,0,0-5-2.72,5.9,5.9,0,0,0-5.06,2.71A12.25,12.25,0,0,0,332.38,272.51Zm38.2,15.29h-9.65V257.4h10.65a38.82,38.82,0,0,1,7,.53,13.93,13.93,0,0,1,4.15,1.38c.15.08.31.15.44.23a14.14,14.14,0,0,1,4.64,4.76c.12.2.26.39.37.6A13.65,13.65,0,0,1,389,267a17,17,0,0,1,.84,5.43,16.71,16.71,0,0,1-1.77,8,11.81,11.81,0,0,1-.82,1.3,14.33,14.33,0,0,1-4.56,4.11,13.67,13.67,0,0,1-4.59,1.5A48.07,48.07,0,0,1,370.58,287.8Zm-1.5-6.1h3.51a8.77,8.77,0,0,0,6.61-2.41q2.32-2.42,2.33-6.87t-2.43-6.78q-2.43-2.37-6.94-2.37h-3.08Zm53-2.09,3.1,8.19h-8.66l-2.16-6.44h-11.7l-2.27,6.44h-8l.29-.75.33-.87.18-.47,2-5.26.8-2.11,7.94-20.94h9.78l4.61,12.19.86,2.27Zm-9.64-4-3.81-11.4-3.94,11.4Zm35.15-3.13c-.29.09-.57.19-.89.26a4.13,4.13,0,0,1,.86.49,4.42,4.42,0,0,1,.64.52,9.88,9.88,0,0,1,2.35,4v0l3.64,10.07h-8.45l-.58-1.79-.52-1.61-1.58-4.92a5.11,5.11,0,0,0-1.75-2.78,6.21,6.21,0,0,0-3.47-.77h-1.17V287.8h-7.94V257.4h12.09a25.65,25.65,0,0,1,4.75.42c.16,0,.35,0,.51.08a12.91,12.91,0,0,1,2,.58c.24.1.43.22.65.32a9.94,9.94,0,0,1,1.08.56,6.68,6.68,0,0,1,2.92,6,7.42,7.42,0,0,1-1.54,4.85,6.91,6.91,0,0,1-2.89,2.06A6.59,6.59,0,0,1,447.61,272.46Zm-2.81-5.73a3.33,3.33,0,0,0-1.47-3,8.56,8.56,0,0,0-4.63-1h-2v7.79h2.84a6.77,6.77,0,0,0,4-1A3.3,3.3,0,0,0,444.8,266.73Zm33.28,17.53q4.62,4.25,12.89,4.25a32.24,32.24,0,0,0,4.41-.3,33.76,33.76,0,0,0,4.36-.9l-.49-6.83a19.27,19.27,0,0,1-3.77,1.32,16.2,16.2,0,0,1-3.67.44,10.13,10.13,0,0,1-7.33-2.66,10.72,10.72,0,0,1-.05-14.28,9.88,9.88,0,0,1,7.25-2.65,13.85,13.85,0,0,1,7.27,2l.71-6.36a21,21,0,0,0-4.33-1.25,29.09,29.09,0,0,0-4.95-.41q-7.81,0-12.37,4.25t-4.55,11.51Q473.46,280,478.08,284.26Zm32.49,3.54h-8l11.53-30.4h9.78l11.51,30.4h-8.67l-2.16-6.44h-11.7Zm4.29-12.21h7.75l-3.81-11.4Zm39.87,12.21L565,257.4h-8.3l-6.69,23.66-6.78-23.66H534.8l9.77,30.4Zm23.19-30.4h-8.11v30.4h8.11Zm12,30.4h-8l11.53-30.4h9.78l11.51,30.4H606l-2.16-6.44h-11.7Zm4.3-12.21h7.75l-3.81-11.4Zm32,12.21h-7.94V257.4H630.3c4,0,7,.66,9,2a6.68,6.68,0,0,1,2.92,6,7.42,7.42,0,0,1-1.54,4.85,7.59,7.59,0,0,1-4.45,2.55q2.4.88,3.85,5v0l3.64,10.07h-8.45l-2.67-8.32a5.17,5.17,0,0,0-1.76-2.78,6.17,6.17,0,0,0-3.46-.77h-1.18Zm0-17.26H629a6.73,6.73,0,0,0,3.94-1,3.3,3.3,0,0,0,1.32-2.86,3.36,3.36,0,0,0-1.47-3,8.67,8.67,0,0,0-4.63-1h-2ZM455.76,302.25H197.12v1.82h447v-1.82Z" transform="translate(-197.12 -43.44)" style="fill: #bd9a5f;opacity: 0.5"/>
  <g style="mask: url(#mask)">
    <g id="kas-txt">
      <g style="mask: url(#mask-2)">
        <path id="text" d="M320.55,332.61c.08,2,.12,3.47.12,4.46,0,.22-.11.33-.34.33s-.41,0-.74,0l-.73,0-.75,0c-.33,0-.58,0-.74,0s-.34-.15-.34-.44c0-1.15,0-2.87.11-5.16s.11-4,.11-5.15c0-.17,0-.26-.11-.26a.21.21,0,0,0-.19.15c-.46,1-1.55,3.61-3.26,7.87-.28.82-.68,1.85-1.21,3.08-.06.11-.39.17-1,.17-.85,0-1.32-.08-1.41-.23-.31-.73-.74-1.75-1.31-3.07q-1.12-2.69-3.45-8a.46.46,0,0,0-.18-.19.34.34,0,0,0-.11.29c0,1.17,0,2.91.06,5.24s.07,4.07.07,5.24c0,.29-.12.44-.34.44s-.39,0-.71,0l-.7,0-.72,0c-.32,0-.56,0-.73,0s-.34-.08-.34-.25q0-1.5.15-4.5c.09-2,.14-3.5.14-4.5s-.05-2.6-.14-4.68-.15-3.63-.15-4.67c0-.17.11-.27.32-.3a23.32,23.32,0,0,1,2.77-.24c.09,0,.22.18.38.55q3.27,7.2,5.63,12.86a4.56,4.56,0,0,0,.66,1.32c.09,0,.28-.36.58-1.08q1.84-4.38,5.1-13c.14-.35.29-.52.45-.52.31,0,.77,0,1.39.05s1.08.05,1.38.05.34.11.34.33c0,1,0,2.59-.1,4.67s-.1,3.64-.1,4.68S320.48,330.63,320.55,332.61Zm15.65-5.87q4.08,10.41,4.08,10.5c0,.11-.11.16-.33.16s-.42,0-.75,0l-.75,0-.77,0c-.35,0-.6,0-.77,0s-.58-.68-1-2-.79-2.05-1.2-2.07-1.2,0-2.61,0H330c-1.49,0-2.33,0-2.54,0s-.67.72-1,2.08-.65,2-.84,2h-3.05c-.18,0-.27-.06-.27-.19a2.11,2.11,0,0,1,.19-.6l3.32-9.07c.28-.73,1.12-2.84,2.54-6.32.25-.58.6-1.45,1-2.61.11-.34.22-.51.35-.51a7.11,7.11,0,0,1,.76.06,5.39,5.39,0,0,0,.76.07,5.18,5.18,0,0,0,.73-.07,5.59,5.59,0,0,1,.73-.08c.08,0,.19.17.34.5Q333.31,319.34,336.2,326.74Zm-2.23,3a23.41,23.41,0,0,0-1.22-3.52c-.78-2-1.34-3.34-1.66-4q-2.8,7.14-2.8,7.48c0,.31.34.49,1,.54H332C333.32,330.31,334,330.13,334,329.77Zm20.31,4.44a3.86,3.86,0,0,0-.62.08l-.62.1q-2.55.24-7.54.24-.24,0-.24-3c0-.47,0-1.19,0-2.14v-2.14c0-1,0-2.41.11-4.33s.11-3.36.11-4.32c0-.17-.11-.25-.33-.25s-.41,0-.76,0l-.75,0-.76,0c-.34,0-.58,0-.75,0s-.34.1-.34.29q0,1.58.15,4.71c.09,2.09.14,3.65.14,4.7s0,2.48-.1,4.46-.1,3.47-.1,4.46a.29.29,0,0,0,.33.33c.64,0,1.58,0,2.83,0l2.83,0q1,0,3,.12c1.34.07,2.34.11,3,.11a.45.45,0,0,0,.47-.39,12.06,12.06,0,0,0,.2-2.69C354.56,334.3,354.47,334.21,354.28,334.21ZM374,327.9a10.09,10.09,0,0,1-2.57,6.92,8.9,8.9,0,0,1-13.32,0,10.55,10.55,0,0,1,0-13.84,8.81,8.81,0,0,1,13.28,0A10,10,0,0,1,374,327.9Zm-3.26,0a7,7,0,0,0-1.65-4.62,5.43,5.43,0,0,0-4.35-2.08,5.32,5.32,0,0,0-4.3,2.11,7.4,7.4,0,0,0,0,9.24,5.32,5.32,0,0,0,4.3,2.11,5.4,5.4,0,0,0,4.36-2.11A7.08,7.08,0,0,0,370.75,327.87Zm11.35-6.38a6.65,6.65,0,0,1,2.17.48l1.31.48a.24.24,0,0,0,.21-.12,10.5,10.5,0,0,0,.53-1.19q.48-.92.75-1.35a.56.56,0,0,0-.14-.18,7.12,7.12,0,0,0-2.3-.95,10.67,10.67,0,0,0-2.49-.35,6,6,0,0,0-4.17,1.46,5.22,5.22,0,0,0-1.65,4,4.51,4.51,0,0,0,1.71,3.71q.06.08,3.15,1.83a2.75,2.75,0,0,1,1.69,2.3c0,1.8-1.4,2.71-4.19,2.71-.23,0-.56,0-1-.07a9.61,9.61,0,0,0-1-.07c-.13,0-.2.06-.2.19a.66.66,0,0,0,0,.23c.16.54.27.95.34,1.22q.19,1,.24,1.5c.08.22.6.32,1.57.32A8.68,8.68,0,0,0,384,336.1a5.57,5.57,0,0,0,2.4-4.77,4.54,4.54,0,0,0-1.75-3.76c-.2-.16-1.29-.74-3.24-1.76-1.17-.61-1.75-1.31-1.75-2.13Q379.61,321.49,382.1,321.49Zm12.94,0c.08,0,.19,0,.28,0a7.25,7.25,0,0,1,1.89.44l1.3.48a.25.25,0,0,0,.22-.12l.06-.13c.14-.28.24-.51.33-.72l.14-.34.09-.18c.22-.4.39-.72.54-1a1.8,1.8,0,0,1,.11-.2.56.56,0,0,0-.13-.18,7.32,7.32,0,0,0-2.3-.95h0c-.23-.06-.43-.09-.65-.13a9.76,9.76,0,0,0-1.82-.22c-.34,0-.66,0-1,.07a5.68,5.68,0,0,0-3.19,1.39,5.22,5.22,0,0,0-1.65,4,4.53,4.53,0,0,0,1.7,3.71q.07.08,3.15,1.83a2.77,2.77,0,0,1,1.7,2.3c0,1.8-1.4,2.71-4.2,2.71-.22,0-.56,0-1-.07a9.29,9.29,0,0,0-1-.07c-.14,0-.2.06-.2.19a.66.66,0,0,0,0,.23c.15.54.26.95.34,1.22q.18,1,.24,1.5c.07.22.59.32,1.57.32a8.71,8.71,0,0,0,5.29-1.57,5.55,5.55,0,0,0,1.91-2.39,5.92,5.92,0,0,0,.49-2.38,4.53,4.53,0,0,0-1.59-3.6l-.16-.16c-.21-.16-1.29-.74-3.25-1.76-1.16-.61-1.74-1.31-1.74-2.13Q392.55,321.49,395,321.49Zm9,13.34a10.55,10.55,0,0,1,0-13.84,8.8,8.8,0,0,1,13.27,0,10.57,10.57,0,0,1,0,13.83,8.89,8.89,0,0,1-13.31,0Zm.7-6.93a7,7,0,0,0,1.63,4.62,5.3,5.3,0,0,0,4.3,2.11,5.41,5.41,0,0,0,4.36-2.11,7.07,7.07,0,0,0,1.63-4.65,7,7,0,0,0-1.65-4.62,5.4,5.4,0,0,0-4.34-2.08,5.3,5.3,0,0,0-4.3,2.11A7,7,0,0,0,404.79,327.9Zm20.87-.55c0-1,0-2.41.11-4.33s.1-3.36.1-4.32c0-.17-.1-.25-.32-.25s-.42,0-.76,0l-.76,0-.75,0c-.34,0-.59,0-.75,0a.28.28,0,0,0-.32.24s0,0,0,.05q0,1.58.15,4.71c0,1,.07,1.81.1,2.55v.15c0,.8,0,1.47,0,2,0,.94,0,2.35-.1,4.2v.26c-.07,2-.11,3.47-.11,4.46a.3.3,0,0,0,.34.33c.44,0,1,0,1.76,0l1.07,0,2.83,0q1,0,3,.12c1.34.07,2.34.11,3,.11a.45.45,0,0,0,.47-.39,12.06,12.06,0,0,0,.2-2.69c0-.17-.09-.26-.28-.26a3.86,3.86,0,0,0-.62.08l-.63.1q-2.54.24-7.53.24c-.17,0-.25-1-.25-3,0-.47,0-1.19,0-2.14Zm31,4.67a5,5,0,0,0-.77.66,7.83,7.83,0,0,1-1.65,1.23,5.35,5.35,0,0,1-2.56.67,4.85,4.85,0,0,1-3.24-1.12,4.33,4.33,0,0,1-.55-.58c-.12-.14-.25-.25-.36-.4a7.85,7.85,0,0,1-1.32-4.64,7.67,7.67,0,0,1,1.3-4.55l0-.05c.1-.14.22-.23.32-.35a4.72,4.72,0,0,1,1.25-1l.38-.2a5.1,5.1,0,0,1,1.78-.41c.12,0,.24,0,.37,0h.07a5,5,0,0,1,2.52.65l.05,0a3.64,3.64,0,0,1,.35.24,8.59,8.59,0,0,1,1.15,1c.43.45.71.67.83.67s.35-.34.76-1l.07-.1,0-.05a4.79,4.79,0,0,0,.72-1.36.83.83,0,0,0-.22-.48,7.16,7.16,0,0,0-3.08-2.19c-.13-.05-.27-.08-.4-.12a9.32,9.32,0,0,0-2.38-.42c-.16,0-.3,0-.47,0h0a10.12,10.12,0,0,0-1.86.18l-.48.14a8.64,8.64,0,0,0-1.5.54c-.18.09-.34.22-.51.32h0a7.81,7.81,0,0,0-1,.65,8.49,8.49,0,0,0-1.05,1c0,.06-.1.09-.14.14a11.39,11.39,0,0,0-2.31,6.93,11.65,11.65,0,0,0,.81,4.37,9.54,9.54,0,0,0,.56,1.21c.06.11.15.21.22.32a8.38,8.38,0,0,0,.68,1,8,8,0,0,0,6.49,3,8.3,8.3,0,0,0,6.54-3.06.87.87,0,0,0,.26-.46,6.68,6.68,0,0,0-.81-1.18A6.15,6.15,0,0,0,456.67,332Zm15.87-5.28q4.08,10.41,4.08,10.5c0,.11-.11.16-.33.16s-.42,0-.75,0l-.75,0-.77,0c-.34,0-.6,0-.77,0s-.58-.68-1-2-.79-2.05-1.2-2.07-1.2,0-2.61,0h-2.14c-1.49,0-2.33,0-2.54,0s-.67.72-1,2.08-.64,2-.84,2h-3.05c-.18,0-.27-.06-.27-.19a2.53,2.53,0,0,1,.19-.6l3-8.11.26-.72.09-.24c.28-.73,1.12-2.84,2.54-6.32.06-.14.13-.3.2-.48s.21-.51.33-.82l.5-1.31c.11-.34.23-.51.35-.51a6.92,6.92,0,0,1,.76.06,5.39,5.39,0,0,0,.76.07,5.18,5.18,0,0,0,.73-.07,5.77,5.77,0,0,1,.73-.08c.08,0,.19.17.34.5Q469.66,319.34,472.54,326.74Zm-2.23,3a23.41,23.41,0,0,0-1.22-3.52c-.78-2-1.34-3.34-1.66-4-.18.44-.34.85-.5,1.26l-.34.89c-.49,1.26-.89,2.31-1.2,3.12-.09.24-.17.45-.24.66a12.11,12.11,0,0,0-.52,1.55c0,.31.34.49,1,.54h2.72C469.66,330.31,470.31,330.13,470.31,329.77ZM493,319.19c0-.4,0-.58,0-.51a.3.3,0,0,0-.34-.26c-.16,0-.41,0-.74,0s-.57,0-.74,0-.41,0-.74,0-.59,0-.76,0-.3.09-.3.27c0,.7,0,1.74.07,3.14s.07,2.45.07,3.15a17.61,17.61,0,0,1-1.88,4.17q-1.31,2.44-2.41,4.34-4.2-7.28-4.19-8.2c0-.74,0-1.84.14-3.31s.14-2.57.14-3.3c0-.17-.11-.26-.31-.26s-.41,0-.75,0-.58,0-.74,0-.42,0-.75,0-.58,0-.75,0-.33.17-.33.5c0,.71,0,1.78-.07,3.21s-.08,2.5-.08,3.22a39.08,39.08,0,0,0,2.72,5.6c2.12,4,3.2,6,3.22,6.06.13.26.26.39.38.39h2.72c.17,0,.31-.13.45-.39l3.35-6.25q2.66-5,2.66-5.57,0-1,0-3T493,319.19Zm5.79,8.59c0-1,0-2.52.11-4.54s.11-3.54.11-4.55c0-.18-.12-.27-.35-.27s-.41,0-.73,0-.57,0-.73,0-.45,0-.8,0-.62,0-.79,0-.31.11-.31.34c0,1,.05,2.5.14,4.51s.15,3.51.15,4.51,0,2.59-.15,4.66-.14,3.63-.14,4.65c0,.21.12.31.34.31s.41,0,.75,0l.75,0,.75,0c.33,0,.58,0,.74,0s.39-.09.39-.28c0-1,0-2.59-.11-4.67S498.79,328.82,498.79,327.78Zm15.74-1q4.08,10.41,4.07,10.5c0,.11-.1.16-.32.16s-.42,0-.75,0l-.75,0-.78,0c-.34,0-.59,0-.76,0s-.58-.68-1-2-.79-2.05-1.2-2.07-1.2,0-2.61,0h-2.14c-1.49,0-2.34,0-2.54,0s-.67.72-1,2.08-.65,2-.84,2h-3c-.18,0-.27-.06-.27-.19a2.11,2.11,0,0,1,.19-.6l3.31-9.07q.42-1.1,2.55-6.32c.25-.58.59-1.45,1-2.61.1-.34.22-.51.35-.51a7.11,7.11,0,0,1,.76.06,5.28,5.28,0,0,0,.75.07,5.17,5.17,0,0,0,.74-.07,5.59,5.59,0,0,1,.73-.08c.08,0,.19.17.33.5Q511.65,319.34,514.53,326.74Zm-2.23,3a23.41,23.41,0,0,0-1.22-3.52c-.78-2-1.34-3.34-1.66-4q-2.81,7.14-2.81,7.48c0,.31.35.49,1,.54h2.72C511.65,330.31,512.3,330.13,512.3,329.77Zm20.84,3.9a34.46,34.46,0,0,1,1.62,3.63c0,.07-.07.1-.22.1s-.43,0-.78,0l-.79,0-.84,0c-.38,0-.66,0-.85,0a.51.51,0,0,1-.47-.33q-.43-.93-2.46-5.7a1.15,1.15,0,0,0-1-.6h-1.23c-1.25,0-2,0-2.22.05s-.29.26-.29.69c0,.64,0,1.58.09,2.84s.09,2.2.09,2.82c0,.19-.09.29-.27.29s-.45,0-.82-.07-.64-.06-.83-.06l-.71,0c-.31,0-.55,0-.7,0s-.34-.1-.34-.31c0-1,0-2.5.14-4.51s.15-3.51.15-4.51q0-4.27-.32-9.12v-.22q0-.27.57-.27c.77,0,1.94,0,3.48-.06s2.71-.06,3.47-.06a7.58,7.58,0,0,1,4.82,1.43,5.4,5.4,0,0,1,2,4.5,7.56,7.56,0,0,1-.54,3.15,6.16,6.16,0,0,1-2.11,2.31c-.17.12-.25.23-.25.34A36.64,36.64,0,0,0,533.14,333.67ZM531.05,325q0-2.44-1.41-3.27a8,8,0,0,0-3.74-.61c-1.47,0-2.21.12-2.24.35-.06.49-.09,1.79-.09,3.91V328l.17.05.8.07c.86,0,1.79.07,2.78.07Q531.05,328.18,531.05,325ZM205.58,273.7l9.56,14.1h10.08L212.9,271.37l11.16-14H215l-9.41,13.14V257.4h-8.11v30.4h8.11Zm27.91,14.1h-8L237,257.4h9.78l11.51,30.4h-8.67l-2.16-6.44h-11.7Zm4.3-12.21h7.75l-3.81-11.4Zm31.32-.54c.38.14.93.34,1.64.58,3,1,4.45,2.17,4.45,3.44a2.76,2.76,0,0,1-1.39,2.44,6.89,6.89,0,0,1-3.78.9,16.11,16.11,0,0,1-3.82-.5,25,25,0,0,1-4.16-1.47l-.69,6.78a35.1,35.1,0,0,0,4.57,1,33.72,33.72,0,0,0,4.59.32q6.33,0,9.67-2.65t3.33-7.66a8.58,8.58,0,0,0-.75-3.74,7.7,7.7,0,0,0-2.35-2.83,26.5,26.5,0,0,0-6.93-3l-1.35-.43A5.3,5.3,0,0,1,270,267a2.33,2.33,0,0,1-.71-1.68,2.39,2.39,0,0,1,1.38-2.15,7.86,7.86,0,0,1,3.84-.78,14.46,14.46,0,0,1,3.32.4,21.88,21.88,0,0,1,3.57,1.18l.6-6.26a27.26,27.26,0,0,0-4-.83,35.56,35.56,0,0,0-4.32-.26q-6.12,0-9.39,2.46a8.25,8.25,0,0,0-3.28,7,7.6,7.6,0,0,0,1.86,5.28A15.38,15.38,0,0,0,269.11,275.05Zm28.08-3.29c0-1.16-.07-2.49-.2-4s-.35-3.19-.63-5c.3,1.2.62,2.31,1,3.33a25.62,25.62,0,0,0,1.18,2.83l9.15,18.89h10.08V257.4h-7.32v17.22c0,1.05.06,2.19.18,3.45s.31,2.63.57,4.13c-.48-1.59-.93-2.92-1.33-4s-.74-1.95-1-2.56L300,257.4H289.88v30.4h7.31Zm31,12.54q-4-4.2-4-11.71t4-11.71q4-4.23,11.11-4.22t11.07,4.22q4,4.23,4,11.71t-4,11.71q-4,4.21-11.07,4.21T328.22,284.3Zm4.16-11.79a12.45,12.45,0,0,0,1.9,7.27,5.91,5.91,0,0,0,5.07,2.72,5.84,5.84,0,0,0,5-2.71,12.49,12.49,0,0,0,1.89-7.28,12.35,12.35,0,0,0-1.9-7.23,5.84,5.84,0,0,0-5-2.72,5.9,5.9,0,0,0-5.06,2.71A12.25,12.25,0,0,0,332.38,272.51Zm38.2,15.29h-9.65V257.4h10.65a38.82,38.82,0,0,1,7,.53,13.93,13.93,0,0,1,4.15,1.38c.15.08.31.15.44.23a14.14,14.14,0,0,1,4.64,4.76c.12.2.26.39.37.6A13.65,13.65,0,0,1,389,267a17,17,0,0,1,.84,5.43,16.71,16.71,0,0,1-1.77,8,11.81,11.81,0,0,1-.82,1.3,14.33,14.33,0,0,1-4.56,4.11,13.67,13.67,0,0,1-4.59,1.5A48.07,48.07,0,0,1,370.58,287.8Zm-1.5-6.1h3.51a8.77,8.77,0,0,0,6.61-2.41q2.32-2.42,2.33-6.87t-2.43-6.78q-2.43-2.37-6.94-2.37h-3.08Zm53-2.09,3.1,8.19h-8.66l-2.16-6.44h-11.7l-2.27,6.44h-8l.29-.75.33-.87.18-.47,2-5.26.8-2.11,7.94-20.94h9.78l4.61,12.19.86,2.27Zm-9.64-4-3.81-11.4-3.94,11.4Zm35.15-3.13c-.29.09-.57.19-.89.26a4.13,4.13,0,0,1,.86.49,4.42,4.42,0,0,1,.64.52,9.88,9.88,0,0,1,2.35,4v0l3.64,10.07h-8.45l-.58-1.79-.52-1.61-1.58-4.92a5.11,5.11,0,0,0-1.75-2.78,6.21,6.21,0,0,0-3.47-.77h-1.17V287.8h-7.94V257.4h12.09a25.65,25.65,0,0,1,4.75.42c.16,0,.35,0,.51.08a12.91,12.91,0,0,1,2,.58c.24.1.43.22.65.32a9.94,9.94,0,0,1,1.08.56,6.68,6.68,0,0,1,2.92,6,7.42,7.42,0,0,1-1.54,4.85,6.91,6.91,0,0,1-2.89,2.06A6.59,6.59,0,0,1,447.61,272.46Zm-2.81-5.73a3.33,3.33,0,0,0-1.47-3,8.56,8.56,0,0,0-4.63-1h-2v7.79h2.84a6.77,6.77,0,0,0,4-1A3.3,3.3,0,0,0,444.8,266.73Zm33.28,17.53q4.62,4.25,12.89,4.25a32.24,32.24,0,0,0,4.41-.3,33.76,33.76,0,0,0,4.36-.9l-.49-6.83a19.27,19.27,0,0,1-3.77,1.32,16.2,16.2,0,0,1-3.67.44,10.13,10.13,0,0,1-7.33-2.66,10.72,10.72,0,0,1-.05-14.28,9.88,9.88,0,0,1,7.25-2.65,13.85,13.85,0,0,1,7.27,2l.71-6.36a21,21,0,0,0-4.33-1.25,29.09,29.09,0,0,0-4.95-.41q-7.81,0-12.37,4.25t-4.55,11.51Q473.46,280,478.08,284.26Zm32.49,3.54h-8l11.53-30.4h9.78l11.51,30.4h-8.67l-2.16-6.44h-11.7Zm4.29-12.21h7.75l-3.81-11.4Zm39.87,12.21L565,257.4h-8.3l-6.69,23.66-6.78-23.66H534.8l9.77,30.4Zm23.19-30.4h-8.11v30.4h8.11Zm12,30.4h-8l11.53-30.4h9.78l11.51,30.4H606l-2.16-6.44h-11.7Zm4.3-12.21h7.75l-3.81-11.4Zm32,12.21h-7.94V257.4H630.3c4,0,7,.66,9,2a6.68,6.68,0,0,1,2.92,6,7.42,7.42,0,0,1-1.54,4.85,7.59,7.59,0,0,1-4.45,2.55q2.4.88,3.85,5v0l3.64,10.07h-8.45l-2.67-8.32a5.17,5.17,0,0,0-1.76-2.78,6.17,6.17,0,0,0-3.46-.77h-1.18Zm0-17.26H629a6.73,6.73,0,0,0,3.94-1,3.3,3.3,0,0,0,1.32-2.86,3.36,3.36,0,0,0-1.47-3,8.67,8.67,0,0,0-4.63-1h-2ZM455.76,302.25H197.12v1.82h447v-1.82Z" transform="translate(-197.12 -43.44)" style="fill: #bd9a5f"/>
      </g>
    </g>
  </g>
</svg>